<svg xmlns="http://www.w3.org/2000/svg" width="40" height="40.5" viewBox="0 0 40 40.5">
  <g id="icn-stylist" transform="translate(5275 -11835.75)">
    <g id="Rectangle_195" data-name="Rectangle 195" transform="translate(-5275 11836)" fill="#fff" stroke="#707070" stroke-width="1" opacity="0">
      <rect width="40" height="40" stroke="none"/>
      <rect x="0.5" y="0.5" width="39" height="39" fill="none"/>
    </g>
    <path id="Path_102" data-name="Path 102" d="M2017.9,1698.606a.336.336,0,0,0,.063-.453q-.874-1.252-1.761-2.493c-1.283-1.807-2.61-3.676-3.844-5.568l-.073-.111c-2.771-4.241-2.771-4.241-1.153-7.492l.232-.468,0-.006.063-.13c.243-.493.508-1.038.8-1.677a3.687,3.687,0,0,0,.141-2.368,1.018,1.018,0,0,0-.541-.6l-.535-.229c-.687-.293-1.277-.544-2.1-.9-1-.427-1.045-.508-1.045-1.732a.336.336,0,0,0-.336-.336h-1.954a.336.336,0,0,0-.336.336c0,.23,0,.419-.011.578-.041.689-.226.808-1.039,1.156l-.017.008c-.588.257-1.065.461-1.545.667-.336.143-.674.288-1.053.452a1.028,1.028,0,0,0-.545.609,3.671,3.671,0,0,0,.134,2.365q.116.249.235.5c.323.679.612,1.258.87,1.776,1.626,3.253,1.626,3.253-1.152,7.488l-.078.119c-1.22,1.886-2.546,3.749-3.828,5.55-.594.835-1.188,1.67-1.775,2.51a.335.335,0,0,0,.065.454,17.648,17.648,0,0,0,10.284,3.377v2.974a.632.632,0,0,0-.293.532v.131c-2.989.485-2.983,2.317-2.97,3.944.009,1.112.018,2.165-.807,2.908h-.846a.786.786,0,0,0,0,1.571.336.336,0,1,0,0-.672c-.031,0-.113,0-.113-.114a.133.133,0,0,1,.028-.086c.006-.007.024-.028.085-.028h.97a.338.338,0,0,0,.213-.076c1.162-.95,1.151-2.309,1.141-3.509-.012-1.585-.018-2.852,2.3-3.261v1.247a.624.624,0,0,0,.628.617h.864a.624.624,0,0,0,.628-.617V1706.3c2.325.409,2.318,1.676,2.3,3.262-.011,1.2-.025,2.558,1.137,3.508a.338.338,0,0,0,.213.076h.984c.028,0,.1,0,.1.114s-.075.114-.1.114a.336.336,0,0,0,0,.672.757.757,0,0,0,.583-.257.8.8,0,0,0,.192-.529.763.763,0,0,0-.774-.785h-.86c-.823-.742-.813-1.795-.8-2.906.016-1.628.024-3.461-2.974-3.946v-.131a.63.63,0,0,0-.292-.531v-2.972A17.406,17.406,0,0,0,2017.9,1698.606Zm-6.834-17.5a7.005,7.005,0,0,1-.355-2.307,7.825,7.825,0,0,1,.1-1.262l.763.323a.383.383,0,0,1,.179.229,1.547,1.547,0,0,1,.089.446,3.386,3.386,0,0,1-.215,1.4l0,.008C2011.424,1680.36,2011.237,1680.746,2011.064,1681.1Zm-4.866-6.389h1.292c0,.15.012.287.025.412a1.525,1.525,0,0,0,1.031,1.423c.117.058.247.117.391.179l.01,0,.075.033c-.312,1.37-1.2,2.34-2.172,2.34s-1.86-.95-2.183-2.341l.081-.036C2005.9,1676.236,2006.163,1675.917,2006.2,1674.714Zm-4.251,3.377a.388.388,0,0,1,.185-.235l.007,0,.747-.316a8.518,8.518,0,0,1,.094,1.26,7.14,7.14,0,0,1-.351,2.31c-.2-.4-.384-.788-.563-1.172A3.023,3.023,0,0,1,2001.947,1678.091Zm-3.9,17.942c1.287-1.807,2.616-3.676,3.844-5.572l.077-.117c1.694-2.582,2.415-3.724,2.385-4.908a3.233,3.233,0,0,0,1.957.784l.034,0a.336.336,0,0,0,.034-.67,2.516,2.516,0,0,1-2.086-1.211c-.1-.13-.193-.257-.3-.376-.2-.5-.482-1.069-.836-1.777l-.15-.3a6.791,6.791,0,0,0,.639-3.09,9.071,9.071,0,0,0-.133-1.535l.527-.227c.42,1.633,1.533,2.742,2.806,2.742s2.387-1.109,2.8-2.743l.531.228a8.313,8.313,0,0,0-.14,1.535,6.674,6.674,0,0,0,.646,3.085l-.155.311c-.348.7-.626,1.267-.825,1.761,0,0-.007,0-.01.008-.1.121-.2.25-.3.382a2.506,2.506,0,0,1-2.072,1.21.336.336,0,0,0,.033.67l.034,0a3.2,3.2,0,0,0,1.953-.792c-.034,1.187.685,2.33,2.378,4.921l.073.11c1.241,1.9,2.572,3.778,3.859,5.589q.79,1.114,1.576,2.23a14.222,14.222,0,0,1-5.1,2.358l-2.853-7.818a.336.336,0,0,0-.631.23l2.827,7.745a21.737,21.737,0,0,1-10.436-.312l3.934-8.372a.336.336,0,1,0-.607-.286l-3.974,8.456a13.7,13.7,0,0,1-3.933-2Q1997.249,1697.151,1998.049,1696.032Zm9.183,11.457h-.778v-1.96h.778Zm-.292-2.632h-.193V1702l.127,0h.065Z" transform="translate(-7261.866 10161.958)" fill="#939393" stroke="#939393" stroke-width="0.5"/>
  </g>
</svg>
