<svg xmlns="http://www.w3.org/2000/svg" width="40" height="40" viewBox="0 0 40 40">
  <g id="icn-models" transform="translate(-636 -368)">
    <g id="Rectangle_199" data-name="Rectangle 199" transform="translate(636 368)" fill="#fff" stroke="#707070" stroke-width="1" opacity="0">
      <rect width="40" height="40" stroke="none"/>
      <rect x="0.5" y="0.5" width="39" height="39" fill="none"/>
    </g>
    <path id="Path_103" data-name="Path 103" d="M237.14,164.066l-5.74-14.005a.321.321,0,0,0-.1-.125v-6.472l0-.012a.325.325,0,0,0,.018-.107v-1.994l.911-.091a2.448,2.448,0,1,0-.031-4.884h0l-.877.092v-1.158a.327.327,0,0,0-.023-.12c-2.137-5.391-5.641-6.676-6.3-6.875a.326.326,0,0,0-.277-.05l-6.948,1.954a.326.326,0,0,0-.237.313v17.153a.325.325,0,0,0,.22.308l6.948,2.389a.307.307,0,0,0,.106.018.193.193,0,0,1,.217,0,.314.314,0,0,0,.123-.024,11.522,11.522,0,0,0,5.5-5.46V149.8l-3.89,11.129a.325.325,0,0,0,.2.415.314.314,0,0,0,.108.018.323.323,0,0,0,.307-.218l3.276-9.371v11.435a.326.326,0,1,0,.651,0V151.54l5.235,12.773a.326.326,0,0,0,.3.2.316.316,0,0,0,.123-.024A.325.325,0,0,0,237.14,164.066Zm-4.905-27.04a1.8,1.8,0,1,1-.032,3.585l-.879.086v-3.574Zm-7.751,12.594-6.3-2.165V130.78l6.3-1.771Zm.651.046v-20.6c1.024.42,3.776,1.914,5.537,6.312v7.914C230.482,143.793,228.8,148.014,225.135,149.665Z" transform="translate(428.65 241.746)" fill="#939393" stroke="#939393" stroke-width="0.5"/>
  </g>
</svg>
