<svg xmlns="http://www.w3.org/2000/svg" width="40" height="40" viewBox="0 0 40 40">
  <g id="icn-makeupArtist" transform="translate(-503 -368)">
    <g id="Rectangle_198" data-name="Rectangle 198" transform="translate(503 368)" fill="#fff" stroke="#707070" stroke-width="1" opacity="0">
      <rect width="40" height="40" stroke="none"/>
      <rect x="0.5" y="0.5" width="39" height="39" fill="none"/>
    </g>
    <g id="Group_114" data-name="Group 114" transform="translate(411.333 246.184)">
      <path id="Path_89" data-name="Path 89" d="M102.751,157.639a3.1,3.1,0,0,0-.157-.46,2.632,2.632,0,0,0-1.661-1.5,3.042,3.042,0,0,0-3.608,2.3,3.66,3.66,0,0,0-.125.636c-.005.048,0,.094,0,.14a3.5,3.5,0,0,0-.009.48c0,.065.02.126.028.19a3.256,3.256,0,0,0,.065.405c.023.091.059.174.089.261s.054.187.094.275l.011.017a2.967,2.967,0,0,0,.211.368c.029.045.051.1.082.14a2.564,2.564,0,0,0,1.36.976.431.431,0,0,0,.124.018.444.444,0,0,0,.123-.869,1.766,1.766,0,0,1-1.1-1.012,2.412,2.412,0,0,1-.206-.857,2.774,2.774,0,0,1,.109-.915,2.169,2.169,0,0,1,2.513-1.7,1.633,1.633,0,0,1,.667.386c.011.011.021.025.033.036a1.839,1.839,0,0,1,.217.256c.03.042.052.092.079.138a2.038,2.038,0,0,1,.117.211,2.2,2.2,0,0,1,.088.26c.015.049.036.1.049.148a2.455,2.455,0,0,1,.038.268c.007.056.021.11.024.169a2.734,2.734,0,0,1-.109.913.442.442,0,1,0,.848.251c.027-.094.036-.188.056-.282.024-.115.055-.229.068-.343.007-.069,0-.136.005-.2a3.415,3.415,0,0,0,.008-.425c0-.043-.014-.085-.019-.128a3.287,3.287,0,0,0-.077-.475C102.77,157.686,102.759,157.664,102.751,157.639Z" transform="translate(-0.214 -3.788)" fill="#939393" stroke="#939393" stroke-width="0.3"/>
      <path id="Path_90" data-name="Path 90" d="M117.968,158.775c0-.052,0-.1,0-.156a3.625,3.625,0,0,0-.125-.634,3.454,3.454,0,0,0-1.4-1.937,2.636,2.636,0,0,0-2.206-.366,2.907,2.907,0,0,0-1.93,3.038,3.6,3.6,0,0,0,.13.848.441.441,0,0,0,.862-.073.451.451,0,0,0-.014-.177,2.724,2.724,0,0,1-.107-.826,1.989,1.989,0,0,1,1.308-1.959,1.71,1.71,0,0,1,1.147.081c.017.007.033.019.049.026a2.055,2.055,0,0,1,.3.165c.042.028.079.064.12.1a2.607,2.607,0,0,1,.9,1.336,2.8,2.8,0,0,1,.094.463s0,.007,0,.011a2.741,2.741,0,0,1,.014.44,2.421,2.421,0,0,1-.2.858,1.768,1.768,0,0,1-1.1,1.012.443.443,0,0,0,.122.869.431.431,0,0,0,.124-.018,2.563,2.563,0,0,0,1.36-.975c.034-.046.056-.1.087-.15a2.875,2.875,0,0,0,.206-.358l.011-.018c.04-.089.063-.184.094-.275s.067-.171.089-.262a3.249,3.249,0,0,0,.064-.395c.009-.067.026-.132.03-.2A3.551,3.551,0,0,0,117.968,158.775Z" transform="translate(-1.988 -3.788)" fill="#939393" stroke="#939393" stroke-width="0.3"/>
      <path id="Path_91" data-name="Path 91" d="M113.779,150.423a2.1,2.1,0,0,1-1.426-1.038l-3.381-6.616c.454-1.274.938-2.568,1.43-3.877a98.885,98.885,0,0,0,3.37-10.039,15.9,15.9,0,0,0,.538-3.5.665.665,0,0,0-1.256-.322l-6.573,12.867-6.575-12.869a.664.664,0,0,0-1.252.325,15.873,15.873,0,0,0,.538,3.5c1.019,3.994,2.427,7.932,3.79,11.739l.731,2.049c.046.13.093.259.139.387l-3.228,6.33-.013.022a2.039,2.039,0,0,1-.334.44c-.04.041-.084.079-.128.117a2.069,2.069,0,0,1-.329.236c-.046.026-.09.057-.139.08a2.286,2.286,0,0,1-.5.169,4.276,4.276,0,0,0-.611.179l-.032.012c-.09.034-.181.064-.269.1-.07.032-.136.074-.2.109s-.116.06-.172.093-.123.061-.184.1-.1.08-.155.117c-.1.068-.2.14-.29.216s-.207.164-.3.256c-.079.074-.149.156-.223.236a5,5,0,0,0-.419.514c-.086.12-.171.239-.246.366-.051.087-.094.178-.139.268a5.14,5.14,0,0,0-.215.47c-.014.038-.036.071-.049.109-.035.092-.064.185-.093.282-.006.02-.016.04-.022.06-.011.036-.011.072-.021.109a5.3,5.3,0,0,0-.143.722c-.014.111-.017.222-.023.333a4.975,4.975,0,0,0-.008.513c0,.122.013.241.027.361a4.788,4.788,0,0,0,.08.474c.026.12.047.239.081.357.005.019.007.039.012.058a4.734,4.734,0,0,0,.237.613c.014.03.02.064.034.094s.052.077.074.119a4.5,4.5,0,0,0,.342.557c.056.078.117.151.177.224a4.273,4.273,0,0,0,.367.39c.072.068.144.137.221.2a4.135,4.135,0,0,0,.53.366c.079.046.16.086.242.126a3.989,3.989,0,0,0,.575.237c.034.011.063.03.1.04a4.026,4.026,0,0,0,1.144.163,4.24,4.24,0,0,0,1.311-.22c.046-.015.094-.02.139-.037.1-.034.186-.088.282-.131a4.453,4.453,0,0,0,.41-.193c.1-.056.2-.117.3-.178.059-.038.118-.08.166-.117.024-.017.043-.039.066-.056.1-.074.187-.158.28-.24s.194-.169.285-.262.156-.179.232-.271.142-.153.206-.237c.03-.041.052-.08.08-.122s.042-.064.064-.1.056-.08.079-.118c.069-.109.132-.223.2-.342.019-.037.034-.079.053-.117s.047-.1.07-.154a5.144,5.144,0,0,0,.212-.56c.013-.041.033-.077.044-.118,0-.012,0-.025.008-.038s.008-.023.011-.036a5.074,5.074,0,0,0,.151-.809c.007-.062.011-.124.016-.185a5.135,5.135,0,0,0,0-.816c0-.019,0-.039,0-.058a4.927,4.927,0,0,0-.115-.717c-.015-.064-.036-.125-.054-.189l-.011-.036a4.459,4.459,0,0,0-.2-.562c0-.013-.011-.027-.016-.041-.036-.084-.077-.164-.122-.255l-.019-.038a2.359,2.359,0,0,1-.183-.491,2.222,2.222,0,0,1-.06-.607c0-.044.017-.086.021-.13a2.078,2.078,0,0,1,.086-.441,2.126,2.126,0,0,1,.21-.462l.009-.017.029-.051.044-.08.161-.29c.033-.058.06-.106.094-.169l1.072-1.929.048-.079,0,0,.474-.854,2.048.974c.284.51,1.388,2.5,1.4,2.515a2.141,2.141,0,0,1,.049,2.147,5.088,5.088,0,0,0-.332,3.744,4.8,4.8,0,0,0,4.472,3.567,4.084,4.084,0,0,0,1.147-.164,4.225,4.225,0,0,0,2.622-2.26,5.05,5.05,0,0,0,.276-3.632A4.86,4.86,0,0,0,113.779,150.423Zm-.43-24.037a16.965,16.965,0,0,1-.432,2.248,98.345,98.345,0,0,1-3.341,9.947q-.591,1.573-1.153,3.113l-1.447-2.832Zm-10.031,23.147-.276.5c-.039.06-.077.124-.115.2-.016.032-.026.064-.041.094-.03.063-.056.126-.082.191-.011.028-.026.056-.036.085s-.008.032-.013.048a3.152,3.152,0,0,0-.092.333c0,.02-.01.041-.014.061a3.024,3.024,0,0,0,.036,1.3l0,.008c.008.031.019.056.027.086a3.264,3.264,0,0,0,.105.318c.019.05.038.1.061.147l.043.087c.011.023.019.048.032.071a3.737,3.737,0,0,1,.219.552c.027.078.057.152.08.234a4.155,4.155,0,0,1,.128.692c0,.026,0,.052,0,.077a4.338,4.338,0,0,1,0,.615c-.005.075-.011.149-.02.225a4.292,4.292,0,0,1-.135.695c-.019.065-.051.122-.072.186a4.449,4.449,0,0,1-.231.577,4.323,4.323,0,0,1-.384.616c-.032.042-.069.078-.1.118a4.155,4.155,0,0,1-.355.39c-.066.064-.139.12-.209.179a4.166,4.166,0,0,1-.4.3l-.083.05a3.741,3.741,0,0,1-.455.224c-.054.023-.1.055-.159.074a3.447,3.447,0,0,1-.583.155c-.087.016-.175.021-.263.03a3.146,3.146,0,0,1-.354.018c-.094,0-.19,0-.284-.012a3.182,3.182,0,0,1-.44-.076c-.051-.012-.1-.017-.154-.032-.032-.01-.061-.024-.093-.034a3.177,3.177,0,0,1-.423-.175c-.071-.035-.141-.07-.208-.109a3.208,3.208,0,0,1-.406-.282c-.067-.054-.129-.115-.192-.174a3.538,3.538,0,0,1-.26-.278c-.06-.072-.118-.144-.173-.221a3.654,3.654,0,0,1-.256-.417c-.032-.061-.064-.122-.094-.185a3.922,3.922,0,0,1-.2-.539c-.03-.1-.049-.207-.07-.312-.026-.123-.049-.246-.064-.372-.011-.1-.019-.207-.023-.312,0-.137,0-.274.007-.41.005-.1.008-.19.02-.284a4.483,4.483,0,0,1,.119-.6c.007-.027.01-.056.018-.083s.013-.039.019-.058c.033-.106.073-.208.114-.312a4.165,4.165,0,0,1,.186-.409c.035-.068.067-.138.105-.2.07-.119.149-.23.229-.342a4.17,4.17,0,0,1,.305-.373c.065-.072.129-.145.2-.211s.159-.138.239-.2.166-.131.252-.189.168-.113.255-.163c.053-.03.107-.058.161-.086.092-.047.185-.088.28-.127a3.311,3.311,0,0,1,.472-.153c.047-.011.091-.03.139-.04s.071-.026.109-.034a3.185,3.185,0,0,0,.424-.136c.048-.019.094-.036.14-.058.031-.013.062-.023.093-.038a3.051,3.051,0,0,0,.408-.252c.012-.009.022-.019.034-.028a3.038,3.038,0,0,0,.4-.372c.026-.028.052-.057.077-.086a2.908,2.908,0,0,0,.325-.461c.008-.011.015-.024.022-.036h0v0l0,0,2.867-5.613c.265.741.528,1.484.8,2.223Zm13.018,7.616a3.353,3.353,0,0,1-2.077,1.8,3.777,3.777,0,0,1-4.524-2.8,4.2,4.2,0,0,1,.267-3.088,3,3,0,0,0-.071-3,17.237,17.237,0,0,0-1.658-2.794l0-.009-2.385-1.133q-.683-1.884-1.35-3.772l-.731-2.05c-1.357-3.789-2.758-7.706-3.767-11.661a17.1,17.1,0,0,1-.43-2.238l11.956,23.4a2.987,2.987,0,0,0,2.03,1.49,4.035,4.035,0,0,1,2.956,2.862A4.17,4.17,0,0,1,116.336,157.149Z" transform="translate(0 -0.16)" fill="#939393" stroke="#939393" stroke-width="0.3"/>
      <path id="Path_92" data-name="Path 92" d="M108.007,145.319a.441.441,0,0,0-.66.586l.245.276a.441.441,0,1,0,.66-.586Z" transform="translate(-1.394 -2.567)" fill="#939393" stroke="#939393" stroke-width="0.3"/>
      <path id="Path_93" data-name="Path 93" d="M129.7,124.587a4.057,4.057,0,0,0-2.98-1.287H120a.441.441,0,1,0,0,.883h6.726a3.213,3.213,0,0,1,3.207,3.4L128.1,158.406a1.045,1.045,0,0,1-1.132,1.041,1.092,1.092,0,0,1-.958-1.105l-.11-10.25a2.238,2.238,0,0,0-2.231-2.207h-3.462a.441.441,0,1,0,0,.883h3.462a1.353,1.353,0,0,1,1.349,1.334l.11,10.25a1.98,1.98,0,0,0,1.77,1.975c.054,0,.108.007.162.007a1.927,1.927,0,0,0,1.923-1.9l1.825-30.795A4.058,4.058,0,0,0,129.7,124.587Z" transform="translate(-2.84)" fill="#939393" stroke="#939393" stroke-width="0.3"/>
      <path id="Path_94" data-name="Path 94" d="M120.093,143.057a.441.441,0,1,0,0,.883h5.066v.034a.682.682,0,0,1-.681.681h-4.256a.441.441,0,1,0,0,.883h4.256a1.566,1.566,0,0,0,1.564-1.564V127.83a1.566,1.566,0,0,0-1.564-1.564H120.14a.441.441,0,0,0,0,.883h4.338a.678.678,0,0,1,.673.643h-5.058a.441.441,0,1,0,0,.883h5.066v.643h-5.066a.441.441,0,1,0,0,.883h5.066v.644h-5.066a.441.441,0,1,0,0,.883h5.066v.643h-5.066a.441.441,0,1,0,0,.883h5.066v.644h-5.066a.441.441,0,1,0,0,.883h5.066v.644h-5.066a.441.441,0,1,0,0,.883h5.066v.643h-5.066a.441.441,0,1,0,0,.883h5.066v.644h-5.066a.441.441,0,1,0,0,.883h5.066V140h-5.066a.441.441,0,0,0,0,.883h5.066v.644h-5.066a.441.441,0,1,0,0,.883h5.066v.643Z" transform="translate(-2.851 -0.348)" fill="#939393" stroke="#939393" stroke-width="0.3"/>
    </g>
  </g>
</svg>
