<svg xmlns="http://www.w3.org/2000/svg" xmlns:xlink="http://www.w3.org/1999/xlink" width="40" height="40" viewBox="0 0 40 40">
  <defs>
    <clipPath id="clip-path">
      <rect id="Rectangle_34065" data-name="Rectangle 34065" width="38.565" height="26.337" fill="#929292"/>
    </clipPath>
  </defs>
  <g id="Group_73281" data-name="Group 73281" transform="translate(5514 -11836)">
    <g id="Rectangle_193" data-name="Rectangle 193" transform="translate(-5514 11836)" fill="#fff" stroke="#707070" stroke-width="1" opacity="0">
      <rect width="40" height="40" stroke="none"/>
      <rect x="0.5" y="0.5" width="39" height="39" fill="none"/>
    </g>
    <g id="Group_73278" data-name="Group 73278" transform="translate(-5513.283 11844.109)">
      <g id="Group_73278-2" data-name="Group 73278" transform="translate(0 0)" clip-path="url(#clip-path)">
        <path id="Path_61675" data-name="Path 61675" d="M26.712,14.14H21.82a4.364,4.364,0,0,1-4.608-4.609V6.27a.533.533,0,0,1,.533-.533H30.788a.533.533,0,0,1,.533.533V9.531a4.364,4.364,0,0,1-4.608,4.609M18.278,6.8V9.531a3.321,3.321,0,0,0,3.543,3.544h4.892a3.32,3.32,0,0,0,3.543-3.544V6.8Z" transform="translate(-4.984 -1.662)" fill="#929292"/>
        <path id="Path_61676" data-name="Path 61676" d="M7.568,14.14c-1.955,0-2.978-1.909-2.978-3.794V6.27a.533.533,0,0,1,.533-.533h4.891a.533.533,0,0,1,.533.533v4.076c0,1.885-1.023,3.794-2.979,3.794M5.656,6.8v3.543c0,1.314.6,2.729,1.912,2.729s1.913-1.414,1.913-2.729V6.8Z" transform="translate(-1.329 -1.662)" fill="#929292"/>
        <path id="Path_61677" data-name="Path 61677" d="M16.083,9.1H12.008a.533.533,0,0,1,0-1.066h4.076a.533.533,0,1,1,0,1.066" transform="translate(-3.323 -2.326)" fill="#929292"/>
        <path id="Path_61678" data-name="Path 61678" d="M6.239,5.141a.533.533,0,0,1-.533-.533V1.88H.533a.533.533,0,0,1,0-1.066H5.706V.533a.533.533,0,0,1,1.066,0V.815h5.174a.533.533,0,0,1,0,1.066H6.772V4.608a.533.533,0,0,1-.533.533" transform="translate(0 0)" fill="#929292"/>
        <path id="Path_61679" data-name="Path 61679" d="M44.289,14.14c-1.956,0-2.979-1.909-2.979-3.794V6.27a.533.533,0,0,1,.533-.533h4.891a.533.533,0,0,1,.533.533v4.076c0,1.885-1.023,3.794-2.978,3.794M42.376,6.8v3.543c0,1.314.6,2.729,1.913,2.729S46.2,11.66,46.2,10.345V6.8Z" transform="translate(-11.963 -1.662)" fill="#929292"/>
        <path id="Path_61680" data-name="Path 61680" d="M40.181,9.1H36.106a.533.533,0,0,1,0-1.066h4.076a.533.533,0,0,1,0,1.066" transform="translate(-10.301 -2.326)" fill="#929292"/>
        <path id="Path_61681" data-name="Path 61681" d="M42.96,5.141a.533.533,0,0,1-.533-.533V1.88H37.253a.533.533,0,1,1,0-1.066h5.174V.533a.533.533,0,0,1,1.066,0V.815h5.173a.533.533,0,0,1,0,1.066H43.492V4.608a.533.533,0,0,1-.533.533" transform="translate(-10.633 0)" fill="#929292"/>
        <path id="Path_61682" data-name="Path 61682" d="M26.926,21.206a.533.533,0,0,1-.533-.533V16.6a.533.533,0,1,1,1.066,0v4.076a.533.533,0,0,1-.533.533" transform="translate(-7.643 -4.652)" fill="#929292"/>
        <path id="Path_61683" data-name="Path 61683" d="M29.309,32.65H17.9a2.981,2.981,0,0,1-2.978-2.978V24.781A2.982,2.982,0,0,1,17.9,21.8H29.309a2.982,2.982,0,0,1,2.979,2.979v4.891a2.982,2.982,0,0,1-2.979,2.978M17.9,22.868a1.915,1.915,0,0,0-1.912,1.913v4.891A1.915,1.915,0,0,0,17.9,31.584H29.309a1.915,1.915,0,0,0,1.913-1.912V24.781a1.915,1.915,0,0,0-1.913-1.913Z" transform="translate(-4.32 -6.314)" fill="#929292"/>
        <path id="Path_61684" data-name="Path 61684" d="M22.486,31.2a2.978,2.978,0,1,1,2.979-2.979A2.982,2.982,0,0,1,22.486,31.2m0-4.891A1.913,1.913,0,1,0,24.4,28.223a1.915,1.915,0,0,0-1.913-1.912" transform="translate(-5.649 -7.311)" fill="#929292"/>
        <path id="Path_61685" data-name="Path 61685" d="M33.146,27.459h-1.63a.533.533,0,1,1,0-1.066h1.63a.533.533,0,1,1,0,1.066" transform="translate(-8.972 -7.643)" fill="#929292"/>
      </g>
    </g>
  </g>
</svg>
