<svg xmlns="http://www.w3.org/2000/svg" width="40" height="40" viewBox="0 0 40 40">
  <g id="icn-photographer" transform="translate(5514 -11836)">
    <g id="Rectangle_193" data-name="Rectangle 193" transform="translate(-5514 11836)" fill="#fff" stroke="#707070" stroke-width="1" opacity="0">
      <rect width="40" height="40" stroke="none"/>
      <rect x="0.5" y="0.5" width="39" height="39" fill="none"/>
    </g>
    <g id="Group_98" data-name="Group 98" transform="translate(-5509.6 11841.601)">
      <g id="Group_89" data-name="Group 89" transform="translate(4.415 2.2)">
        <g id="Group_88" data-name="Group 88">
          <path id="Path_58" data-name="Path 58" d="M199.53,69.724H193.22a.4.4,0,0,1-.4-.458s.213-1.563.286-2.083l.062-.416a.449.449,0,0,1,.028-.1.8.8,0,0,1,.675-.513h5.007c.591,0,.7.625.734.83.018.092.032.21.032.21l.284,2.07a.4.4,0,0,1-.4.459Zm-5.848-.807h5.385l-.249-1.793c-.006-.037-.019-.108-.034-.162H193.97l-.064.334C193.858,67.634,193.75,68.415,193.682,68.917Z" transform="translate(-183.167 -66.155)" fill="#939393" stroke="#939393" stroke-width="0.5"/>
          <path id="Path_59" data-name="Path 59" d="M180.746,78.085a1.607,1.607,0,1,1,1.606-1.606A1.608,1.608,0,0,1,180.746,78.085Z" transform="translate(-179.139 -68.722)" fill="#939393" stroke="#939393" stroke-width="0.5"/>
          <g id="Group_87" data-name="Group 87" transform="translate(3.793 6.491)">
            <g id="Group_86" data-name="Group 86">
              <path id="Path_60" data-name="Path 60" d="M193.129,92.581a8.613,8.613,0,1,1,8.612-8.613A8.623,8.623,0,0,1,193.129,92.581Zm0-16.418a7.805,7.805,0,1,0,7.806,7.8A7.814,7.814,0,0,0,193.129,76.163Z" transform="translate(-184.516 -75.356)" fill="#939393" stroke="#939393" stroke-width="0.5"/>
              <path id="Path_61" data-name="Path 61" d="M194.29,90.961a5.832,5.832,0,1,1,5.832-5.832A5.838,5.838,0,0,1,194.29,90.961Zm0-10.857a5.025,5.025,0,1,0,5.026,5.025A5.032,5.032,0,0,0,194.29,80.1Z" transform="translate(-185.677 -76.517)" fill="#939393" stroke="#939393" stroke-width="0.5"/>
            </g>
          </g>
        </g>
      </g>
      <path id="Path_62" data-name="Path 62" d="M201.6,92H176.279c-.13,0-1.2-.029-1.553-.088-1.2-.2-1.845-1.643-1.845-2.9V71.668a2.761,2.761,0,0,1,.847-1.993.668.668,0,0,1,.144-.15,3.024,3.024,0,0,1,.567-.368.644.644,0,0,0,.027-.084,2.352,2.352,0,0,1,2.354-2.332h4.587a2.34,2.34,0,0,1,2.164,1.431,1.478,1.478,0,0,0,.716-1.153l.047-.31c.157-1.084.42-2.9,1.46-3.284a16.041,16.041,0,0,1,4.636-.389,16.022,16.022,0,0,1,4.635.389c1.041.389,1.3,2.2,1.461,3.288l.046.306c.068.429.691.946,1.709,1.419a13.706,13.706,0,0,0,3.33.446h0a2.786,2.786,0,0,1,2.773,2.785V89.013A2.969,2.969,0,0,1,201.6,92ZM176.82,67.548a1.552,1.552,0,0,0-1.55,1.549,1.379,1.379,0,0,1-.16.533.406.406,0,0,1-.182.181,2.772,2.772,0,0,0-.533.327.344.344,0,0,0-.062.067,2.028,2.028,0,0,0-.646,1.463V89.013c0,.922.471,1.988,1.17,2.1.228.038.981.067,1.431.078H201.6a2.172,2.172,0,0,0,1.98-2.182V71.668a1.981,1.981,0,0,0-1.98-1.978,14.284,14.284,0,0,1-3.656-.521c-1.321-.613-2.049-1.295-2.165-2.024l-.048-.317c-.1-.727-.351-2.426-.945-2.648a28.183,28.183,0,0,0-8.707,0c-.592.221-.839,1.918-.943,2.643l-.049.321a2.107,2.107,0,0,1-1.494,1.871c-.044.012-.1.02-.156.03a.479.479,0,0,1-.52-.3,1.539,1.539,0,0,0-1.507-1.2Z" transform="translate(-172.881 -63.036)" fill="#939393" stroke="#939393" stroke-width="0.5"/>
      <path id="Path_63" data-name="Path 63" d="M183.026,67.969h-.806c0-.466-.756-.983-1.84-.983s-1.84.517-1.84.983h-.806c0-1,1.163-1.79,2.646-1.79S183.026,66.965,183.026,67.969Z" transform="translate(-174.31 -63.962)" fill="#939393" stroke="#939393" stroke-width="0.5"/>
    </g>
  </g>
</svg>
