<svg xmlns="http://www.w3.org/2000/svg" width="40" height="40" viewBox="0 0 40 40">
  <g id="icn-hairStylist" transform="translate(5037 -11836)">
    <g id="Rectangle_197" data-name="Rectangle 197" transform="translate(-5037 11836)" fill="#fff" stroke="#707070" stroke-width="1" opacity="0">
      <rect width="40" height="40" stroke="none"/>
      <rect x="0.5" y="0.5" width="39" height="39" fill="none"/>
    </g>
    <g id="Group_101" data-name="Group 101" transform="translate(-5031.4 11839.601)">
      <path id="Path_95" data-name="Path 95" d="M173.723,128.9a8.14,8.14,0,0,0-2.792-1.864.419.419,0,0,0-.317.776,7.31,7.31,0,0,1,2.506,1.672,7.8,7.8,0,0,1,1.8,6.7.42.42,0,0,0,.337.488.394.394,0,0,0,.076.008.42.42,0,0,0,.412-.344A8.651,8.651,0,0,0,173.723,128.9Z" transform="translate(-154.537 -123.904)" fill="#939393" stroke="#939393" stroke-width="0.5"/>
      <path id="Path_96" data-name="Path 96" d="M179.837,138.922c-.036-.139-.927-3.411-3.819-3.98a4.579,4.579,0,0,0-1.808.027,9.465,9.465,0,0,0,.3-1.182,7.849,7.849,0,0,0-3.3-8.265,11.3,11.3,0,0,0-6.624-2.212,10.3,10.3,0,0,0-5.975,1.594,11.592,11.592,0,0,0-3.714,4.921,9.068,9.068,0,0,0-.31,2.964,10.957,10.957,0,0,1,0,1.847,2.283,2.283,0,0,1-.057.376,2.9,2.9,0,0,1-.378-.065,3.241,3.241,0,0,1-1.53-.925.419.419,0,1,0-.6.584,4.615,4.615,0,0,0,.559.493,4.447,4.447,0,0,1-.484-.194.42.42,0,1,0-.357.759,5.261,5.261,0,0,0,1.519.452,5.488,5.488,0,0,0,.557.037c-.241.294-.457.54-.612.707a10.346,10.346,0,0,0-.767.94,1.236,1.236,0,0,0-.309.919,1.076,1.076,0,0,0,.29.576,1.023,1.023,0,0,0,.384.239c.066.028.154.064.275.122a1.934,1.934,0,0,1,.251.133.261.261,0,0,1,.093.165.232.232,0,0,1-.023.1.487.487,0,0,1-.1.129,1.4,1.4,0,0,1-.134.137.825.825,0,0,0-.248.347.778.778,0,0,0-.031.447.727.727,0,0,0,.192.325.934.934,0,0,0-.026.82.807.807,0,0,0,.5.421.845.845,0,0,1,.289.162.985.985,0,0,1,.3.532.205.205,0,0,1-.012.09,3.379,3.379,0,0,0-.06.344,2.247,2.247,0,0,0,.023,1.072,1.684,1.684,0,0,0,1.276.961,2.88,2.88,0,0,0,1.461-.036c.149-.029.316-.062.513-.1a6.557,6.557,0,0,1,2.083-.174,3.622,3.622,0,0,1,1.873.909c.58.539.763,1.15,1.156,2.6a16.859,16.859,0,0,1,.574,3.736,17.627,17.627,0,0,1-.132,2.929.42.42,0,0,0,.362.47.382.382,0,0,0,.054,0,.42.42,0,0,0,.416-.366,18.492,18.492,0,0,0,.138-3.069,17.638,17.638,0,0,0-.6-3.922,5.669,5.669,0,0,0-1.394-3,4.489,4.489,0,0,0-2.321-1.123,7.147,7.147,0,0,0-2.351.177c-.2.034-.376.068-.531.1a2.131,2.131,0,0,1-1.078.05c-.55-.152-.679-.358-.71-.44a1.83,1.83,0,0,1,.022-.68,2.265,2.265,0,0,1,.047-.263,1.016,1.016,0,0,0,.029-.352,1.811,1.811,0,0,0-.584-1.083,1.651,1.651,0,0,0-.544-.317c-.023-.009-.045-.016-.045-.006a.092.092,0,0,1,.012-.075.158.158,0,0,1,.09-.042l.01,0a.416.416,0,0,0-.012-.826.653.653,0,0,1-.148-.033,2.16,2.16,0,0,0,.177-.184,1.282,1.282,0,0,0,.23-.346,1.055,1.055,0,0,0,.088-.487,1.083,1.083,0,0,0-.349-.718,1.744,1.744,0,0,0-.466-.283c-.141-.068-.241-.11-.317-.142a.465.465,0,0,1-.108-.052.24.24,0,0,1-.06-.11c-.009-.061.051-.159.158-.306a9.571,9.571,0,0,1,.7-.862c.188-.2.453-.5.757-.879.008-.01.009-.022.016-.032a5.08,5.08,0,0,0,.359-.438,2.526,2.526,0,0,0,1.126-.39.449.449,0,0,0,.117-.376c-.074-.416-.508-.352-.649-.333l-.15.019c.02-.133.029-.247.034-.327a11.72,11.72,0,0,0,0-1.956,8.47,8.47,0,0,1,.143-2.1c.006.121,0,.231.015.357a15.312,15.312,0,0,0,4.694,9.285,9.375,9.375,0,0,0,4.115,2.458,7.7,7.7,0,0,0,1.717.193,8.268,8.268,0,0,0,1.431-.139,5.284,5.284,0,0,0,.6,1.258c0,.005,0,.01,0,.014a47.234,47.234,0,0,0,3.953,6.733,48.483,48.483,0,0,0,3.821,4.756.419.419,0,0,0,.31.137.414.414,0,0,0,.283-.11.419.419,0,0,0,.028-.592,47.716,47.716,0,0,1-3.756-4.673,46.6,46.6,0,0,1-2.84-4.588,6.619,6.619,0,0,0,2.874.776c.115.008.273.015.466.015a7.031,7.031,0,0,0,4.855-1.8,5.922,5.922,0,0,0,1.424-2.2A5.74,5.74,0,0,0,179.837,138.922Zm-1.054,3.283a5.114,5.114,0,0,1-1.224,1.894,6.364,6.364,0,0,1-4.683,1.547,5.279,5.279,0,0,1-3.179-1.117,4.4,4.4,0,0,1-1.444-2.311.413.413,0,0,0-.216-.266.423.423,0,0,0-.317-.059,7.109,7.109,0,0,1-3.14.007,8.608,8.608,0,0,1-3.73-2.256,14.429,14.429,0,0,1-4.428-8.741c0-.027,0-.049-.005-.075a10.24,10.24,0,0,0,.475.923A18.111,18.111,0,0,0,161.8,137.3a11.5,11.5,0,0,0,4.229,1.935,10.979,10.979,0,0,0,2.306.244q.4,0,.792-.029a.419.419,0,0,0-.06-.836,10.163,10.163,0,0,1-2.861-.2,10.614,10.614,0,0,1-3.935-1.809,17.616,17.616,0,0,1-4.654-5.272,8.308,8.308,0,0,1-.736-1.615,7.452,7.452,0,0,1-.272-1.216,4.01,4.01,0,0,1,.164-.425c.012-.015.022-.032.034-.047a.428.428,0,0,0,.079-.172,6.072,6.072,0,0,1,2.191-2.249,9.54,9.54,0,0,1,5.5-1.455,10.457,10.457,0,0,1,6.126,2.039,7.018,7.018,0,0,1,2.981,7.45,8.742,8.742,0,0,1-.514,1.764.412.412,0,0,0,.158.5.42.42,0,0,0,.4.07,3.922,3.922,0,0,1,2.126-.207c2.382.469,3.138,3.252,3.169,3.37A4.929,4.929,0,0,1,178.782,142.206Z" transform="translate(-151.5 -123.309)" fill="#939393" stroke="#939393" stroke-width="0.5"/>
      <path id="Path_97" data-name="Path 97" d="M179.835,139.887a.42.42,0,0,0-.479.69,3.162,3.162,0,0,1,1.084,1.263,3.041,3.041,0,0,1-.318,2.988,3.575,3.575,0,0,1-2.743,1.225.407.407,0,0,0-.434.4.419.419,0,0,0,.4.434l.084,0a4.341,4.341,0,0,0,3.351-1.55,3.916,3.916,0,0,0,.418-3.853A4.011,4.011,0,0,0,179.835,139.887Z" transform="translate(-155.599 -125.968)" fill="#939393" stroke="#939393" stroke-width="0.5"/>
      <path id="Path_98" data-name="Path 98" d="M177.159,146.137a.431.431,0,0,0,.147-.027,4.034,4.034,0,0,0,1.231-.722,2.358,2.358,0,0,0,.639-.752,2.092,2.092,0,0,0,.125-1.539,2.184,2.184,0,0,0-.637-.975.42.42,0,0,0-.557.627,1.339,1.339,0,0,1,.392.6,1.256,1.256,0,0,1-.071.912,1.593,1.593,0,0,1-.44.5,3.163,3.163,0,0,1-.976.571.42.42,0,0,0,.147.813Z" transform="translate(-155.566 -126.323)" fill="#939393" stroke="#939393" stroke-width="0.5"/>
    </g>
  </g>
</svg>
