<svg xmlns="http://www.w3.org/2000/svg" width="40" height="40" viewBox="0 0 40 40">
  <g id="icn-makeupArtist" transform="translate(5155 -11836)">
    <g id="Rectangle_196" data-name="Rectangle 196" transform="translate(-5155 11836)" fill="#fff" stroke="#707070" stroke-width="1" opacity="0">
      <rect width="40" height="40" stroke="none"/>
      <rect x="0.5" y="0.5" width="39" height="39" fill="none"/>
    </g>
    <g id="Group_100" data-name="Group 100" transform="translate(-5149 11839.2)">
      <path id="Path_100" data-name="Path 100" d="M2307.5,437.346l.908-2.957,3.191-4.484a.32.32,0,0,0,.042-.085c.076-.251.163-.536-2.756-1.43-2.851-.873-2.934-.6-3.014-.343a.3.3,0,0,0-.013.093l.122,5.5-.906,2.945a8.9,8.9,0,0,0-1.378-.109h-2.163l-.043-.86a.28.28,0,0,0-.236-.268l.5-4.581a.3.3,0,0,0-.079-.234.284.284,0,0,0-.051-.034c.274-.662.865-2.079,1.264-2.958a2.663,2.663,0,0,0-1.08-3.4l-.114-.063a5.333,5.333,0,0,0-5.221.129l-.1.064a2.8,2.8,0,0,0-.861,3.857l1.667,2.62a.259.259,0,0,0-.047.041.293.293,0,0,0-.048.246l1.15,4.552a.29.29,0,0,0-.094.227l.037.657h-3.948l-.225-1.425a.3.3,0,0,0-.118-.192.292.292,0,0,0-.219-.052l-.465.074-1.11-7.011a.254.254,0,0,0-.019-.05.28.28,0,0,0-.019-.052.3.3,0,0,0-.035-.042.354.354,0,0,0-.037-.042c-.009-.007-.02-.01-.029-.015a.288.288,0,0,0-.183-.045h0a3.971,3.971,0,0,0-3.376,4.545c.051.826.316,2.582.445,3.4l-.467.074a.294.294,0,0,0-.244.336l.278,1.757a8.836,8.836,0,0,0-4.275,7.551v11.459a.294.294,0,0,0,.294.294h27.8a.294.294,0,0,0,.294-.294V445.292A8.819,8.819,0,0,0,2307.5,437.346Zm3.471-7.571-2.947,4.139-.73-.224-.731-.224-.112-5.08A22.108,22.108,0,0,1,2310.973,429.775Zm-4.5,4.277.652.2.652.2-.814,2.65c-.021-.008-.043-.015-.065-.023-.19-.074-.382-.144-.578-.2l-.005,0c-.194-.06-.391-.111-.589-.158l-.067-.018Zm-10.463-6.229a2.21,2.21,0,0,1,.677-3.046h0l.093-.057a4.745,4.745,0,0,1,2.43-.667,4.689,4.689,0,0,1,2.212.551l.1.056a2.071,2.071,0,0,1,.835,2.642c-.447.984-1.132,2.635-1.352,3.168l-3.2.182Zm1.732,3.422,3.394-.193-.471,4.321-1.39.087-.46.029Zm3.207,5.235h-2.182l-.022-.4,2.177-.137Zm-9.115-6.485.789,4.981-2.663.421-.539.085c-.115-.732-.338-2.209-.418-3.081A3.466,3.466,0,0,0,2291.831,429.994Zm-.307-1.722a3.293,3.293,0,0,1-2.551,3.536A3.329,3.329,0,0,1,2291.524,428.272Zm-2.32,7.838h.015l3.783-.6h0l.464-.074.165,1.043h-.69c-.183,0-.366.006-.548.018-.06,0-.12.011-.179.016-.122.01-.244.021-.365.036-.071.009-.141.021-.212.031-.11.017-.219.033-.328.054-.074.014-.148.03-.222.046-.1.022-.208.045-.311.072-.075.019-.15.04-.224.061-.1.028-.2.058-.3.09q-.111.036-.221.074c-.1.035-.2.072-.3.11-.071.028-.143.056-.213.085-.1.042-.2.087-.3.132-.067.031-.134.062-.2.095-.024.012-.049.022-.073.034l-.2-1.25Zm17.887,20.267h-17.54v-7.1a5.268,5.268,0,0,1,5.262-5.262h7.016a5.268,5.268,0,0,1,5.262,5.262Zm1.374,0h-.786v-7.1a5.857,5.857,0,0,0-5.85-5.85h-7.016a5.857,5.857,0,0,0-5.85,5.85v7.1h-.786v-8.114a6.039,6.039,0,0,1,6.1-5.957h8.08a6.039,6.039,0,0,1,6.1,5.957Zm3.46.08h-2.872v-8.194a6.627,6.627,0,0,0-6.693-6.545h-8.08a6.627,6.627,0,0,0-6.692,6.545v8.194h-2.873V445.292a8.221,8.221,0,0,1,8.226-8.225H2303.7a8.265,8.265,0,0,1,1.529.142q.233.044.463.1t.455.127a8.138,8.138,0,0,1,.882.332h0a8.235,8.235,0,0,1,4.9,7.523Z" transform="translate(-2284.128 -423.465)" fill="#939393" stroke="#939393" stroke-width="0.5"/>
      <path id="Path_101" data-name="Path 101" d="M2358.42,476.043a.294.294,0,0,0-.027.587,5.634,5.634,0,0,1,5.139,4.382.294.294,0,0,0,.574-.13A6.319,6.319,0,0,0,2358.42,476.043Z" transform="translate(-2337.733 -461.56)" fill="#939393" stroke="#939393" stroke-width="0.5"/>
    </g>
  </g>
</svg>
