<svg xmlns="http://www.w3.org/2000/svg" width="40" height="40" viewBox="0 0 40 40">
  <g id="icn-videographer" transform="translate(-400 -467)">
    <g id="Group_119" data-name="Group 119" transform="translate(6035 -11369)">
      <g id="Rectangle_192" data-name="Rectangle 192" transform="translate(-5635 11836)" fill="#fff" stroke="#707070" stroke-width="1" opacity="0">
        <rect width="40" height="40" stroke="none"/>
        <rect x="0.5" y="0.5" width="39" height="39" fill="none"/>
      </g>
      <g id="Group_97" data-name="Group 97" transform="translate(-5630.2 11840.399)">
        <path id="Path_78" data-name="Path 78" d="M108.394,67.173a3.336,3.336,0,1,0,3.335,3.336A3.339,3.339,0,0,0,108.394,67.173Zm0,6a2.662,2.662,0,1,1,2.661-2.662A2.665,2.665,0,0,1,108.394,73.17Z" transform="translate(-98.267 -63.734)" fill="#939393" stroke="#939393" stroke-width="0.5"/>
        <path id="Path_79" data-name="Path 79" d="M134.369,66.814a.339.339,0,0,0-.356.04L132.5,68.06l-1.644-1.214a.34.34,0,0,0-.41.007l-1.5,1.193-1.377-1.185a.338.338,0,0,0-.43-.009l-1.48,1.177-1.111-1.147a.336.336,0,0,0-.469-.015l-1.5,1.367a.34.34,0,0,0-.11.249v9.349a.34.34,0,0,0,.11.249l1.5,1.367a.338.338,0,0,0,.469-.015l1.111-1.147,1.48,1.177a.339.339,0,0,0,.43-.009l1.377-1.185,1.5,1.193a.339.339,0,0,0,.41.007l1.644-1.214,1.518,1.206a.34.34,0,0,0,.21.073.329.329,0,0,0,.146-.034.336.336,0,0,0,.191-.3V67.118A.338.338,0,0,0,134.369,66.814ZM124.286,78.73l-1.148-1.047V68.633l1.148-1.047,1,1.034V77.7Zm3.049.032-1.374-1.092V68.647l1.374-1.093,1.232,1.061V77.7Zm3.324.013-1.417-1.127V68.669l1.417-1.127,1.561,1.152v8.929Zm3.228-.274-.993-.789V68.6l.993-.789Z" transform="translate(-103.944 -63.606)" fill="#939393" stroke="#939393" stroke-width="0.5"/>
        <path id="Path_80" data-name="Path 80" d="M118.932,85.683h-2.447a1.129,1.129,0,0,0-1.112.948H112.6a2.046,2.046,0,0,1-2.044-2.045V80.718a2.714,2.714,0,0,0,2.557-2.7V64.787a2.722,2.722,0,0,0-2.718-2.718H99.816A2.721,2.721,0,0,0,97.1,64.787v.787h-.458a1.661,1.661,0,0,0-1.66,1.66v8.334a1.661,1.661,0,0,0,1.66,1.66H97.1v.788a2.721,2.721,0,0,0,2.718,2.718h1.121a.3.3,0,0,0,.015.041l3.757,5.972-3.757,5.972a.337.337,0,1,0,.57.359l3.584-5.7,3.585,5.7a.333.333,0,0,0,.284.158.337.337,0,0,0,.285-.516l-3.756-5.972,3.756-5.972a.3.3,0,0,0,.016-.041h.609v3.852A2.722,2.722,0,0,0,112.6,87.3h2.75v.038a1.132,1.132,0,0,0,1.131,1.131h2.447a1.132,1.132,0,0,0,1.131-1.131v-.529A1.132,1.132,0,0,0,118.932,85.683ZM96.641,76.554a.987.987,0,0,1-.986-.986V67.234a.987.987,0,0,1,.986-.986H97.1V76.554Zm1.131,1.462V64.787a2.046,2.046,0,0,1,2.044-2.044H110.4a2.046,2.046,0,0,1,2.044,2.044V78.016A2.046,2.046,0,0,1,110.4,80.06H99.816A2.046,2.046,0,0,1,97.772,78.016Zm7.335,8.1-3.384-5.381h6.769Zm14.281,1.228a.457.457,0,0,1-.457.457h-2.447a.457.457,0,0,1-.457-.457v-.529a.457.457,0,0,1,.457-.457h2.447a.457.457,0,0,1,.457.457Z" transform="translate(-94.981 -62.069)" fill="#939393" stroke="#939393" stroke-width="0.5"/>
      </g>
    </g>
  </g>
</svg>
