<svg xmlns="http://www.w3.org/2000/svg" width="112.86" height="42.871" viewBox="0 0 101.86 34.871">
  <g id="logo-normal" transform="translate(-82.34 -653.08)">
    <path id="Path_61686" data-name="Path 61686" d="M2.34,0V-25.92H6.948v10.8a6.453,6.453,0,0,1,2.43-2.322,7.133,7.133,0,0,1,3.51-.846,6.438,6.438,0,0,1,5.13,2.088q1.818,2.088,1.818,6.12V0H15.264V-9.648a5.8,5.8,0,0,0-.918-3.528,3.386,3.386,0,0,0-2.9-1.224,4.221,4.221,0,0,0-3.222,1.368A5.374,5.374,0,0,0,6.948-9.216V0ZM26.712-20.628a2.913,2.913,0,0,1-2.07-.756,2.5,2.5,0,0,1-.81-1.908,2.442,2.442,0,0,1,.81-1.89,2.955,2.955,0,0,1,2.07-.738,2.955,2.955,0,0,1,2.07.738,2.442,2.442,0,0,1,.81,1.89,2.5,2.5,0,0,1-.81,1.908A2.913,2.913,0,0,1,26.712-20.628ZM24.408,0V-17.856h4.608V0ZM33.84,0V-17.856h4.068l.36,3.024a6.278,6.278,0,0,1,2.394-2.52,7.057,7.057,0,0,1,3.69-.936A6.494,6.494,0,0,1,49.5-16.2q1.836,2.088,1.836,6.12V0H46.728V-9.648a5.72,5.72,0,0,0-.936-3.528A3.437,3.437,0,0,0,42.876-14.4a4.109,4.109,0,0,0-3.186,1.368,5.472,5.472,0,0,0-1.242,3.816V0ZM57.348,7.92l4.14-9.108h-1.08L53.46-17.856h5l5,12.564,5.22-12.564h4.9L62.244,7.92ZM76.608,0V-17.856h4.068l.36,3.024a6.278,6.278,0,0,1,2.394-2.52,7.057,7.057,0,0,1,3.69-.936A6.494,6.494,0,0,1,92.268-16.2Q94.1-14.112,94.1-10.08V0H89.5V-9.648a5.72,5.72,0,0,0-.936-3.528A3.437,3.437,0,0,0,85.644-14.4a4.109,4.109,0,0,0-3.186,1.368,5.472,5.472,0,0,0-1.242,3.816V0Z" transform="translate(80 679)" fill="#484848"/>
    <path id="Path_61688" data-name="Path 61688" d="M.414,0V-3.92h.47v1.73H2.918V-3.92h.47V0h-.47V-1.8H.885V0ZM5.438.067a1.361,1.361,0,0,1-.706-.182,1.292,1.292,0,0,1-.484-.507,1.584,1.584,0,0,1-.176-.767,1.609,1.609,0,0,1,.174-.764,1.262,1.262,0,0,1,.484-.51,1.4,1.4,0,0,1,.72-.182,1.3,1.3,0,0,1,.7.182,1.233,1.233,0,0,1,.451.479,1.346,1.346,0,0,1,.157.638q0,.062,0,.123t0,.14H4.536a1.091,1.091,0,0,0,.148.529.877.877,0,0,0,.33.316.883.883,0,0,0,.423.106.842.842,0,0,0,.487-.134A.769.769,0,0,0,6.21-.829h.465a1.254,1.254,0,0,1-.428.641A1.249,1.249,0,0,1,5.438.067Zm0-2.514a.939.939,0,0,0-.6.2.824.824,0,0,0-.3.6H6.289a.8.8,0,0,0-.258-.588A.864.864,0,0,0,5.438-2.447ZM7.566,1.232l.689-1.5H8.092l-1.1-2.509H7.5L8.417-.616l.974-2.162h.487l-1.82,4.01ZM11.889,0V-3.92h.47V0Zm2.755,0V-2.778h.426l.028.5a1.009,1.009,0,0,1,.386-.414,1.088,1.088,0,0,1,.571-.151,1.052,1.052,0,0,1,.787.3,1.27,1.27,0,0,1,.294.921V0h-.47V-1.574q0-.868-.717-.868a.774.774,0,0,0-.6.26,1.061,1.061,0,0,0-.238.742V0ZM19.1.067a1.361,1.361,0,0,1-.706-.182,1.292,1.292,0,0,1-.484-.507,1.584,1.584,0,0,1-.176-.767,1.609,1.609,0,0,1,.174-.764,1.262,1.262,0,0,1,.484-.51,1.4,1.4,0,0,1,.72-.182,1.3,1.3,0,0,1,.7.182,1.233,1.233,0,0,1,.451.479,1.346,1.346,0,0,1,.157.638q0,.062,0,.123t0,.14H18.194a1.091,1.091,0,0,0,.148.529.877.877,0,0,0,.33.316A.883.883,0,0,0,19.1-.33a.842.842,0,0,0,.487-.134.769.769,0,0,0,.286-.364h.465a1.254,1.254,0,0,1-.428.641A1.249,1.249,0,0,1,19.1.067Zm0-2.514a.939.939,0,0,0-.6.2.824.824,0,0,0-.3.6h1.747a.8.8,0,0,0-.258-.588A.864.864,0,0,0,19.1-2.447ZM22.282.067a1.361,1.361,0,0,1-.706-.182,1.292,1.292,0,0,1-.484-.507,1.584,1.584,0,0,1-.176-.767,1.609,1.609,0,0,1,.174-.764,1.262,1.262,0,0,1,.484-.51,1.4,1.4,0,0,1,.72-.182,1.3,1.3,0,0,1,.7.182,1.233,1.233,0,0,1,.451.479,1.346,1.346,0,0,1,.157.638q0,.062,0,.123t0,.14H21.381a1.091,1.091,0,0,0,.148.529.877.877,0,0,0,.33.316.883.883,0,0,0,.423.106.842.842,0,0,0,.487-.134.769.769,0,0,0,.286-.364h.465a1.254,1.254,0,0,1-.428.641A1.249,1.249,0,0,1,22.282.067Zm0-2.514a.939.939,0,0,0-.6.2.824.824,0,0,0-.3.6h1.747a.8.8,0,0,0-.258-.588A.864.864,0,0,0,22.282-2.447ZM25.48.067a1.36,1.36,0,0,1-.725-.19,1.3,1.3,0,0,1-.482-.521,1.61,1.61,0,0,1-.171-.75,1.572,1.572,0,0,1,.174-.748,1.307,1.307,0,0,1,.482-.515,1.372,1.372,0,0,1,.728-.188,1.268,1.268,0,0,1,.6.14,1.009,1.009,0,0,1,.409.392V-4.032h.47V0h-.426L26.5-.459a1.3,1.3,0,0,1-.386.364A1.146,1.146,0,0,1,25.48.067Zm.05-.409a.932.932,0,0,0,.5-.132.9.9,0,0,0,.336-.367,1.189,1.189,0,0,0,.12-.549,1.189,1.189,0,0,0-.12-.549.9.9,0,0,0-.336-.367.932.932,0,0,0-.5-.132.922.922,0,0,0-.49.132.9.9,0,0,0-.336.367,1.189,1.189,0,0,0-.12.549,1.189,1.189,0,0,0,.12.549.9.9,0,0,0,.336.367A.922.922,0,0,0,25.53-.342Zm3.993,1.574.689-1.5H30.05l-1.1-2.509h.51l.918,2.162.974-2.162h.487l-1.82,4.01ZM33.337.067a1.4,1.4,0,0,1-.706-.179,1.294,1.294,0,0,1-.5-.507,1.56,1.56,0,0,1-.182-.77,1.541,1.541,0,0,1,.185-.77,1.308,1.308,0,0,1,.5-.507,1.412,1.412,0,0,1,.708-.179,1.4,1.4,0,0,1,.706.179,1.294,1.294,0,0,1,.5.507,1.56,1.56,0,0,1,.182.77,1.541,1.541,0,0,1-.185.77,1.308,1.308,0,0,1-.5.507A1.412,1.412,0,0,1,33.337.067Zm0-.4a.893.893,0,0,0,.448-.118.877.877,0,0,0,.336-.353,1.2,1.2,0,0,0,.129-.582,1.222,1.222,0,0,0-.126-.582.859.859,0,0,0-.333-.353.882.882,0,0,0-.442-.118.893.893,0,0,0-.448.118.877.877,0,0,0-.336.353,1.2,1.2,0,0,0-.129.582,1.2,1.2,0,0,0,.129.582.884.884,0,0,0,.333.353A.867.867,0,0,0,33.337-.336Zm3.063.4a1.043,1.043,0,0,1-.784-.3,1.277,1.277,0,0,1-.291-.921V-2.778h.47V-1.2q0,.868.711.868a.78.78,0,0,0,.6-.26,1.061,1.061,0,0,0,.238-.742V-2.778h.47V0h-.426l-.034-.5a.967.967,0,0,1-.384.414A1.1,1.1,0,0,1,36.4.067ZM40.074,0V-2.778H40.5l.028.5a1.009,1.009,0,0,1,.386-.414,1.089,1.089,0,0,1,.571-.151,1.052,1.052,0,0,1,.787.3,1.27,1.27,0,0,1,.294.921V0H42.1V-1.574q0-.868-.717-.868a.774.774,0,0,0-.6.26,1.061,1.061,0,0,0-.238.742V0Zm4.469.067a1.4,1.4,0,0,1-.706-.179,1.294,1.294,0,0,1-.5-.507,1.56,1.56,0,0,1-.182-.77,1.541,1.541,0,0,1,.185-.77,1.308,1.308,0,0,1,.5-.507,1.412,1.412,0,0,1,.708-.179,1.4,1.4,0,0,1,.706.179,1.294,1.294,0,0,1,.5.507,1.56,1.56,0,0,1,.182.77,1.541,1.541,0,0,1-.185.77,1.308,1.308,0,0,1-.5.507A1.412,1.412,0,0,1,44.542.067Zm0-.4a.893.893,0,0,0,.448-.118.877.877,0,0,0,.336-.353,1.2,1.2,0,0,0,.129-.582,1.222,1.222,0,0,0-.126-.582A.859.859,0,0,0,45-2.324a.882.882,0,0,0-.442-.118.893.893,0,0,0-.448.118.877.877,0,0,0-.336.353,1.2,1.2,0,0,0-.129.582,1.2,1.2,0,0,0,.129.582.884.884,0,0,0,.333.353A.867.867,0,0,0,44.542-.336Zm2.5.336-.812-2.778h.47L47.292-.6l.65-2.178h.532L49.129-.6l.582-2.178h.476L49.375,0h-.482L48.21-2.29,47.527,0Z" transform="translate(82.07 686.718)" fill="#484848"/>
    <path id="Path_61687" data-name="Path 61687" d="M4.32.252A2.838,2.838,0,0,1,2.25-.54a2.572,2.572,0,0,1-.81-1.908,2.613,2.613,0,0,1,.81-1.944,2.838,2.838,0,0,1,2.07-.792,2.838,2.838,0,0,1,2.07.792A2.613,2.613,0,0,1,7.2-2.448,2.572,2.572,0,0,1,6.39-.54,2.838,2.838,0,0,1,4.32.252Z" transform="translate(177 679)" fill="#eb4c60"/>
  </g>
</svg>
