<svg xmlns="http://www.w3.org/2000/svg" width="1066.412" height="365.047" viewBox="0 0 1066.412 365.047">
  <g id="Group_17" data-name="Group 17" transform="translate(-93 -697)">
    <path id="Path_424" data-name="Path 424" d="M13,129.634V-144H61.646V-29.986A68.118,68.118,0,0,1,87.3-54.5q16.152-8.931,37.055-8.931,34.964,0,54.157,22.043T197.7,23.221V129.634H149.437V27.781q0-24.323-9.691-37.245T109.152-22.385q-20.523,0-34.014,14.442T61.646,32.342v97.292ZM270.292-88.133q-13.3,0-21.853-7.981a26.375,26.375,0,0,1-8.551-20.143q0-12.161,8.551-19.952T270.292-144q13.3,0,21.853,7.791t8.551,19.952a26.375,26.375,0,0,1-8.551,20.143Q283.593-88.133,270.292-88.133ZM245.969,129.634v-188.5h48.646v188.5Zm99.572,0v-188.5h42.945l3.8,31.924a66.276,66.276,0,0,1,25.273-26.6q16.532-9.881,38.955-9.881,34.964,0,54.347,22.043t19.382,64.608V129.634H481.6V27.781q0-24.323-9.881-37.245T440.933-22.385q-20.523,0-33.634,14.442T394.187,32.342v97.292Zm248.171,83.61,43.705-96.152h-11.4L552.667-58.869h52.827L658.32,73.767,713.427-58.869h51.686L645.4,213.244Zm203.325-83.61v-188.5h42.945l3.8,31.924a66.277,66.277,0,0,1,25.273-26.6q16.532-9.881,38.955-9.881,34.964,0,54.347,22.043T981.74,23.221V129.634H933.094V27.781q0-24.323-9.881-37.245T892.429-22.385q-20.523,0-33.634,14.442T845.683,32.342v97.292Zm251.971,2.66q-13.3,0-21.853-8.361a27.152,27.152,0,0,1-8.551-20.142,27.587,27.587,0,0,1,8.551-20.523q8.551-8.361,21.853-8.361t21.853,8.361a27.587,27.587,0,0,1,8.551,20.523,27.152,27.152,0,0,1-8.551,20.142Q1062.31,132.294,1049.008,132.294Z" transform="translate(80 841)" fill="#aaa"/>
    <path id="Path_425" data-name="Path 425" d="M32.593,13.165V31.772H7.2V13.165H3.2V55.548H7.2V35.2H32.593V55.548h4.07V13.165ZM60.245,24.988c-8.528,0-14.472,6.2-14.472,15.506,0,9.239,5.879,15.377,15.247,15.377,4.716,0,8.916-1.551,11.694-4.975l-2.455-2.261a11.15,11.15,0,0,1-8.981,3.941c-6.848,0-11.177-4.458-11.5-11.306H73.166a14.541,14.541,0,0,0,.194-2.584C73.36,30.674,68.385,24.988,60.245,24.988Zm0,3.3c5.492,0,9.11,3.747,9.11,9.82v.258H49.908C50.618,32.289,54.689,28.283,60.245,28.283ZM91.709,61.815l14.989-36.5h-4.006l-9.885,24.1a8.736,8.736,0,0,0-.711,2.2h-.129a6.656,6.656,0,0,0-.711-2.2l-9.82-24.1H77.108L90.029,56.259l-1.874,4.587c-1.1,2.843-2.326,4.781-5.492,4.781a7.014,7.014,0,0,1-3.1-.711l-.711,3.3a9.207,9.207,0,0,0,4.07.84C87.9,69.051,90.158,65.885,91.709,61.815Zm36.762-6.267h4.006V13.165h-4.006Zm45.549-30.56a11.9,11.9,0,0,0-11.436,7.882h-.129a57.687,57.687,0,0,0-.581-7.688l-2.778.129V55.548h3.941V39.008c0-4.523,3.489-10.725,10.4-10.725,5.233,0,8.4,3.553,8.4,8.722V55.548h3.941V37.006C185.778,29.9,181.256,24.988,174.02,24.988Zm34.048,0c-8.528,0-14.472,6.2-14.472,15.506,0,9.239,5.879,15.377,15.247,15.377,4.716,0,8.916-1.551,11.694-4.975l-2.455-2.261a11.15,11.15,0,0,1-8.98,3.941c-6.848,0-11.177-4.458-11.5-11.306H220.99a14.541,14.541,0,0,0,.194-2.584C221.183,30.674,216.209,24.988,208.068,24.988Zm0,3.3c5.492,0,9.11,3.747,9.11,9.82v.258H197.731C198.441,32.289,202.512,28.283,208.068,28.283Zm33.661-3.3c-8.528,0-14.472,6.2-14.472,15.506,0,9.239,5.879,15.377,15.247,15.377,4.716,0,8.916-1.551,11.694-4.975l-2.455-2.261a11.15,11.15,0,0,1-8.98,3.941c-6.848,0-11.177-4.458-11.5-11.306H254.65a14.542,14.542,0,0,0,.194-2.584C254.844,30.674,249.869,24.988,241.729,24.988Zm0,3.3c5.492,0,9.11,3.747,9.11,9.82v.258H231.391C232.1,32.289,236.172,28.283,241.729,28.283ZM286.5,10.064V31.255c-1.874-3.618-5.686-6.332-11.177-6.332-8.593,0-14.408,6.2-14.408,15.441,0,9.3,5.815,15.506,14.214,15.506a12.107,12.107,0,0,0,11.888-7.947h.065a69.463,69.463,0,0,0,.452,7.753l2.843-.129V10.064ZM275.777,52.511c-6.59,0-10.854-4.846-10.854-12.146,0-7.236,4.2-12.082,10.6-12.082A10.752,10.752,0,0,1,286.5,39.008v2.714C286.5,46.374,282.949,52.511,275.777,52.511Zm50.265,9.3,14.989-36.5h-4.006l-9.885,24.1a8.736,8.736,0,0,0-.711,2.2H326.3a6.656,6.656,0,0,0-.711-2.2l-9.82-24.1h-4.329l12.922,30.947-1.874,4.587c-1.1,2.843-2.326,4.781-5.492,4.781a7.014,7.014,0,0,1-3.1-.711l-.711,3.3a9.207,9.207,0,0,0,4.07.84C322.23,69.051,324.492,65.885,326.042,61.815Zm33.6-36.827c-9.045,0-15.054,6.332-15.054,15.506s6.009,15.377,15.054,15.377,15.054-6.2,15.054-15.377S368.683,24.988,359.638,24.988Zm0,27.588c-6.655,0-11.113-4.91-11.113-12.082s4.458-12.211,11.113-12.211,11.048,5.039,11.048,12.211S366.293,52.576,359.638,52.576Zm44.838-27.265v16.54c0,4.523-3.424,10.725-9.95,10.725-5.233,0-8.076-3.424-8.076-8.657V25.311H382.51V43.919c0,7.171,4.264,11.952,11.436,11.952a11.425,11.425,0,0,0,10.919-7.495h.065a57.232,57.232,0,0,0,.581,7.3l2.843-.129V25.311Zm44.386-.323a11.9,11.9,0,0,0-11.436,7.882H437.3a57.689,57.689,0,0,0-.581-7.688l-2.778.129V55.548h3.941V39.008c0-4.523,3.489-10.725,10.4-10.725,5.233,0,8.4,3.553,8.4,8.722V55.548h3.941V37.006C460.621,29.9,456.1,24.988,448.862,24.988Zm34.63,0c-9.045,0-15.054,6.332-15.054,15.506s6.009,15.377,15.054,15.377,15.054-6.2,15.054-15.377S492.537,24.988,483.492,24.988Zm0,27.588c-6.655,0-11.113-4.91-11.113-12.082s4.458-12.211,11.113-12.211,11.048,5.039,11.048,12.211S490.146,52.576,483.492,52.576Zm59.439-27.265-7.042,23.776c-.388,1.1-.646,2.2-.775,2.52h-.129c-.065-.323-.323-1.615-.581-2.52l-7.236-23.776H523.1l-7.236,23.9c-.258.9-.646,2.067-.711,2.39h-.129c-.065-.323-.452-1.292-.775-2.39l-7.042-23.9H502.81L512.5,55.548h4.781l7.236-23c.194-.711.452-1.809.517-2.2h.129c.065.388.323,1.486.517,2.2l7.107,23h4.781l9.368-30.237Z" transform="translate(90.176 992.995)" fill="#484848"/>
    <path id="Path_426" data-name="Path 426" d="M39.412,30.49q-13.743,0-22.577-8.638A28.053,28.053,0,0,1,8,1.042a28.5,28.5,0,0,1,8.835-21.2Q25.669-28.8,39.412-28.8T61.99-20.162a28.5,28.5,0,0,1,8.835,21.2A28.053,28.053,0,0,1,61.99,21.852Q53.155,30.49,39.412,30.49Z" transform="translate(1088.588 944)" fill="#eb4c60"/>
  </g>
</svg>
