<svg xmlns="http://www.w3.org/2000/svg" width="134.688" height="46.924" viewBox="0 0 134.688 46.924">
  <g id="Group_73264" data-name="Group 73264" transform="translate(-83.12 -656.439)">
    <path id="Path_61673" data-name="Path 61673" d="M3.12,0V-34.56H9.264v14.4a8.6,8.6,0,0,1,3.24-3.1,9.511,9.511,0,0,1,4.68-1.128,8.584,8.584,0,0,1,6.84,2.784q2.424,2.784,2.424,8.16V0h-6.1V-12.864a7.738,7.738,0,0,0-1.224-4.7A4.515,4.515,0,0,0,15.264-19.2a5.628,5.628,0,0,0-4.3,1.824,7.165,7.165,0,0,0-1.7,5.088V0Zm32.5-27.5a3.884,3.884,0,0,1-2.76-1.008,3.331,3.331,0,0,1-1.08-2.544,3.256,3.256,0,0,1,1.08-2.52,3.94,3.94,0,0,1,2.76-.984,3.94,3.94,0,0,1,2.76.984,3.256,3.256,0,0,1,1.08,2.52,3.331,3.331,0,0,1-1.08,2.544A3.884,3.884,0,0,1,35.616-27.5ZM32.544,0V-23.808h6.144V0ZM45.12,0V-23.808h5.424l.48,4.032a8.371,8.371,0,0,1,3.192-3.36,9.409,9.409,0,0,1,4.92-1.248A8.658,8.658,0,0,1,66-21.6q2.448,2.784,2.448,8.16V0H62.3V-12.864a7.627,7.627,0,0,0-1.248-4.7A4.583,4.583,0,0,0,57.168-19.2a5.479,5.479,0,0,0-4.248,1.824,7.3,7.3,0,0,0-1.656,5.088V0ZM76.464,10.56l5.52-12.144h-1.44L71.28-23.808h6.672L84.624-7.056l6.96-16.752h6.528L82.992,10.56ZM102.144,0V-23.808h5.424l.48,4.032a8.371,8.371,0,0,1,3.192-3.36,9.409,9.409,0,0,1,4.92-1.248,8.658,8.658,0,0,1,6.864,2.784q2.448,2.784,2.448,8.16V0h-6.144V-12.864a7.627,7.627,0,0,0-1.248-4.7,4.583,4.583,0,0,0-3.888-1.632,5.479,5.479,0,0,0-4.248,1.824,7.3,7.3,0,0,0-1.656,5.088V0Zm31.824.336a3.783,3.783,0,0,1-2.76-1.056,3.429,3.429,0,0,1-1.08-2.544,3.484,3.484,0,0,1,1.08-2.592,3.783,3.783,0,0,1,2.76-1.056,3.783,3.783,0,0,1,2.76,1.056,3.484,3.484,0,0,1,1.08,2.592,3.429,3.429,0,0,1-1.08,2.544A3.783,3.783,0,0,1,133.968.336Z" transform="translate(80 691)" fill="#fff"/>
    <path id="Path_61674" data-name="Path 61674" d="M.444,0V-4.2h.5v1.854H3.126V-4.2h.5V0h-.5V-1.932H.948V0ZM5.826.072a1.458,1.458,0,0,1-.756-.2,1.384,1.384,0,0,1-.519-.543,1.7,1.7,0,0,1-.189-.822,1.724,1.724,0,0,1,.186-.819,1.352,1.352,0,0,1,.519-.546,1.5,1.5,0,0,1,.771-.2,1.391,1.391,0,0,1,.747.2,1.321,1.321,0,0,1,.483.513,1.442,1.442,0,0,1,.168.684q0,.066,0,.132t0,.15H4.86a1.169,1.169,0,0,0,.159.567.94.94,0,0,0,.354.339.946.946,0,0,0,.453.114A.9.9,0,0,0,6.348-.5a.824.824,0,0,0,.306-.39h.5A1.343,1.343,0,0,1,6.693-.2,1.339,1.339,0,0,1,5.826.072Zm0-2.694a1.006,1.006,0,0,0-.639.219.882.882,0,0,0-.321.639H6.738a.851.851,0,0,0-.276-.63A.926.926,0,0,0,5.826-2.622ZM8.106,1.32,8.844-.288H8.67L7.488-2.976h.546L9.018-.66l1.044-2.316h.522l-1.95,4.3ZM12.738,0V-4.2h.5V0ZM15.69,0V-2.976h.456l.03.534a1.081,1.081,0,0,1,.414-.444,1.166,1.166,0,0,1,.612-.162,1.127,1.127,0,0,1,.843.321,1.36,1.36,0,0,1,.315.987V0h-.5V-1.686q0-.93-.768-.93a.829.829,0,0,0-.639.279,1.137,1.137,0,0,0-.255.795V0Zm4.77.072a1.458,1.458,0,0,1-.756-.2,1.384,1.384,0,0,1-.519-.543A1.7,1.7,0,0,1,19-1.488a1.724,1.724,0,0,1,.186-.819,1.352,1.352,0,0,1,.519-.546,1.5,1.5,0,0,1,.771-.2,1.391,1.391,0,0,1,.747.2,1.321,1.321,0,0,1,.483.513,1.442,1.442,0,0,1,.168.684q0,.066,0,.132t0,.15h-2.37a1.169,1.169,0,0,0,.159.567.94.94,0,0,0,.354.339.946.946,0,0,0,.453.114A.9.9,0,0,0,20.982-.5a.824.824,0,0,0,.306-.39h.5a1.343,1.343,0,0,1-.459.687A1.339,1.339,0,0,1,20.46.072Zm0-2.694a1.007,1.007,0,0,0-.639.219.882.882,0,0,0-.321.639h1.872a.851.851,0,0,0-.276-.63A.926.926,0,0,0,20.46-2.622ZM23.874.072a1.458,1.458,0,0,1-.756-.2A1.384,1.384,0,0,1,22.6-.666a1.7,1.7,0,0,1-.189-.822,1.724,1.724,0,0,1,.186-.819,1.352,1.352,0,0,1,.519-.546,1.5,1.5,0,0,1,.771-.2,1.391,1.391,0,0,1,.747.2,1.321,1.321,0,0,1,.483.513,1.442,1.442,0,0,1,.168.684q0,.066,0,.132t0,.15h-2.37a1.169,1.169,0,0,0,.159.567.94.94,0,0,0,.354.339.946.946,0,0,0,.453.114A.9.9,0,0,0,24.4-.5a.824.824,0,0,0,.306-.39h.5a1.343,1.343,0,0,1-.459.687A1.339,1.339,0,0,1,23.874.072Zm0-2.694a1.006,1.006,0,0,0-.639.219.882.882,0,0,0-.321.639h1.872a.851.851,0,0,0-.276-.63A.926.926,0,0,0,23.874-2.622ZM27.3.072a1.457,1.457,0,0,1-.777-.2,1.389,1.389,0,0,1-.516-.558,1.725,1.725,0,0,1-.183-.8,1.685,1.685,0,0,1,.186-.8,1.4,1.4,0,0,1,.516-.552,1.47,1.47,0,0,1,.78-.2,1.359,1.359,0,0,1,.648.15,1.081,1.081,0,0,1,.438.42V-4.32h.5V0H28.44l-.048-.492a1.393,1.393,0,0,1-.414.39A1.228,1.228,0,0,1,27.3.072Zm.054-.438a1,1,0,0,0,.531-.141.964.964,0,0,0,.36-.393,1.274,1.274,0,0,0,.129-.588,1.274,1.274,0,0,0-.129-.588.964.964,0,0,0-.36-.393,1,1,0,0,0-.531-.141.987.987,0,0,0-.525.141.964.964,0,0,0-.36.393,1.274,1.274,0,0,0-.129.588,1.274,1.274,0,0,0,.129.588.964.964,0,0,0,.36.393A.987.987,0,0,0,27.354-.366ZM31.632,1.32,32.37-.288H32.2L31.014-2.976h.546L32.544-.66l1.044-2.316h.522l-1.95,4.3ZM35.718.072a1.5,1.5,0,0,1-.756-.192,1.387,1.387,0,0,1-.531-.543,1.672,1.672,0,0,1-.2-.825,1.652,1.652,0,0,1,.2-.825,1.4,1.4,0,0,1,.537-.543,1.513,1.513,0,0,1,.759-.192,1.5,1.5,0,0,1,.756.192,1.387,1.387,0,0,1,.531.543,1.672,1.672,0,0,1,.195.825,1.652,1.652,0,0,1-.2.825,1.4,1.4,0,0,1-.537.543A1.513,1.513,0,0,1,35.718.072Zm0-.432a.956.956,0,0,0,.48-.126.94.94,0,0,0,.36-.378,1.285,1.285,0,0,0,.138-.624,1.309,1.309,0,0,0-.135-.624A.92.92,0,0,0,36.2-2.49a.945.945,0,0,0-.474-.126.956.956,0,0,0-.48.126.94.94,0,0,0-.36.378,1.285,1.285,0,0,0-.138.624,1.285,1.285,0,0,0,.138.624.947.947,0,0,0,.357.378A.929.929,0,0,0,35.718-.36ZM39,.072a1.117,1.117,0,0,1-.84-.321,1.369,1.369,0,0,1-.312-.987v-1.74h.5V-1.29q0,.93.762.93a.836.836,0,0,0,.645-.279,1.137,1.137,0,0,0,.255-.8V-2.976h.5V0h-.456l-.036-.534a1.036,1.036,0,0,1-.411.444A1.182,1.182,0,0,1,39,.072ZM42.936,0V-2.976h.456l.03.534a1.081,1.081,0,0,1,.414-.444,1.166,1.166,0,0,1,.612-.162,1.127,1.127,0,0,1,.843.321,1.36,1.36,0,0,1,.315.987V0h-.5V-1.686q0-.93-.768-.93a.829.829,0,0,0-.639.279,1.137,1.137,0,0,0-.255.795V0Zm4.788.072a1.5,1.5,0,0,1-.756-.192,1.387,1.387,0,0,1-.531-.543,1.672,1.672,0,0,1-.2-.825,1.652,1.652,0,0,1,.2-.825,1.4,1.4,0,0,1,.537-.543,1.513,1.513,0,0,1,.759-.192,1.5,1.5,0,0,1,.756.192,1.387,1.387,0,0,1,.531.543,1.672,1.672,0,0,1,.195.825,1.652,1.652,0,0,1-.2.825,1.4,1.4,0,0,1-.537.543A1.513,1.513,0,0,1,47.724.072Zm0-.432a.956.956,0,0,0,.48-.126.94.94,0,0,0,.36-.378,1.285,1.285,0,0,0,.138-.624,1.309,1.309,0,0,0-.135-.624.92.92,0,0,0-.357-.378.945.945,0,0,0-.474-.126.956.956,0,0,0-.48.126.94.94,0,0,0-.36.378,1.285,1.285,0,0,0-.138.624,1.285,1.285,0,0,0,.138.624.947.947,0,0,0,.357.378A.929.929,0,0,0,47.724-.36ZM50.406,0l-.87-2.976h.5l.63,2.334.7-2.334h.57l.7,2.334.624-2.334h.51L52.9,0h-.516l-.732-2.454L50.922,0Z" transform="translate(82.814 702.043)" fill="#fff"/>
  </g>
</svg>
