<svg xmlns="http://www.w3.org/2000/svg" width="134.688" height="47.254" viewBox="0 0 134.688 47.254">
  <g id="logo-white" transform="translate(-83.12 -656.439)">
    <path id="Path_61689" data-name="Path 61689" d="M3.12,0V-34.56H9.264v14.4a8.6,8.6,0,0,1,3.24-3.1,9.511,9.511,0,0,1,4.68-1.128,8.584,8.584,0,0,1,6.84,2.784q2.424,2.784,2.424,8.16V0h-6.1V-12.864a7.738,7.738,0,0,0-1.224-4.7A4.515,4.515,0,0,0,15.264-19.2a5.628,5.628,0,0,0-4.3,1.824,7.165,7.165,0,0,0-1.7,5.088V0Zm32.5-27.5a3.884,3.884,0,0,1-2.76-1.008,3.331,3.331,0,0,1-1.08-2.544,3.256,3.256,0,0,1,1.08-2.52,3.94,3.94,0,0,1,2.76-.984,3.94,3.94,0,0,1,2.76.984,3.256,3.256,0,0,1,1.08,2.52,3.331,3.331,0,0,1-1.08,2.544A3.884,3.884,0,0,1,35.616-27.5ZM32.544,0V-23.808h6.144V0ZM45.12,0V-23.808h5.424l.48,4.032a8.371,8.371,0,0,1,3.192-3.36,9.409,9.409,0,0,1,4.92-1.248A8.658,8.658,0,0,1,66-21.6q2.448,2.784,2.448,8.16V0H62.3V-12.864a7.627,7.627,0,0,0-1.248-4.7A4.583,4.583,0,0,0,57.168-19.2a5.479,5.479,0,0,0-4.248,1.824,7.3,7.3,0,0,0-1.656,5.088V0ZM76.464,10.56l5.52-12.144h-1.44L71.28-23.808h6.672L84.624-7.056l6.96-16.752h6.528L82.992,10.56ZM102.144,0V-23.808h5.424l.48,4.032a8.371,8.371,0,0,1,3.192-3.36,9.409,9.409,0,0,1,4.92-1.248,8.658,8.658,0,0,1,6.864,2.784q2.448,2.784,2.448,8.16V0h-6.144V-12.864a7.627,7.627,0,0,0-1.248-4.7,4.583,4.583,0,0,0-3.888-1.632,5.479,5.479,0,0,0-4.248,1.824,7.3,7.3,0,0,0-1.656,5.088V0Zm31.824.336a3.783,3.783,0,0,1-2.76-1.056,3.429,3.429,0,0,1-1.08-2.544,3.484,3.484,0,0,1,1.08-2.592,3.783,3.783,0,0,1,2.76-1.056,3.783,3.783,0,0,1,2.76,1.056,3.484,3.484,0,0,1,1.08,2.592,3.429,3.429,0,0,1-1.08,2.544A3.783,3.783,0,0,1,133.968.336Z" transform="translate(80 691)" fill="#fff"/>
    <path id="Path_61690" data-name="Path 61690" d="M.555,0V-5.25h.63v2.317H3.908V-5.25h.63V0h-.63V-2.415H1.185V0ZM7.283.09a1.822,1.822,0,0,1-.945-.244,1.731,1.731,0,0,1-.649-.679A2.122,2.122,0,0,1,5.453-1.86a2.155,2.155,0,0,1,.233-1.024,1.691,1.691,0,0,1,.649-.682A1.872,1.872,0,0,1,7.3-3.81a1.738,1.738,0,0,1,.934.244,1.651,1.651,0,0,1,.6.641,1.8,1.8,0,0,1,.21.855q0,.083,0,.165t0,.188H6.075a1.462,1.462,0,0,0,.2.709,1.175,1.175,0,0,0,.443.424,1.183,1.183,0,0,0,.566.143,1.127,1.127,0,0,0,.653-.18,1.03,1.03,0,0,0,.382-.488H8.94a1.679,1.679,0,0,1-.574.859A1.673,1.673,0,0,1,7.283.09Zm0-3.368a1.258,1.258,0,0,0-.8.274,1.1,1.1,0,0,0-.4.8h2.34a1.064,1.064,0,0,0-.345-.787A1.157,1.157,0,0,0,7.283-3.278Zm2.85,4.928.923-2.01h-.218L9.36-3.72h.682l1.23,2.9,1.305-2.9h.652L10.792,1.65ZM15.923,0V-5.25h.63V0Zm3.69,0V-3.72h.57l.038.668a1.351,1.351,0,0,1,.517-.555,1.458,1.458,0,0,1,.765-.2,1.409,1.409,0,0,1,1.054.4,1.7,1.7,0,0,1,.394,1.234V0h-.63V-2.107q0-1.163-.96-1.163a1.037,1.037,0,0,0-.8.349,1.421,1.421,0,0,0-.319.994V0Zm5.963.09a1.822,1.822,0,0,1-.945-.244,1.731,1.731,0,0,1-.649-.679,2.122,2.122,0,0,1-.236-1.028,2.155,2.155,0,0,1,.233-1.024,1.691,1.691,0,0,1,.649-.682,1.872,1.872,0,0,1,.964-.244,1.738,1.738,0,0,1,.934.244,1.651,1.651,0,0,1,.6.641,1.8,1.8,0,0,1,.21.855q0,.083,0,.165t0,.188H24.368a1.462,1.462,0,0,0,.2.709,1.175,1.175,0,0,0,.443.424,1.183,1.183,0,0,0,.566.143,1.127,1.127,0,0,0,.653-.18,1.03,1.03,0,0,0,.382-.488h.622a1.679,1.679,0,0,1-.574.859A1.673,1.673,0,0,1,25.575.09Zm0-3.368a1.258,1.258,0,0,0-.8.274,1.1,1.1,0,0,0-.4.8h2.34a1.064,1.064,0,0,0-.345-.787A1.157,1.157,0,0,0,25.575-3.278ZM29.843.09A1.822,1.822,0,0,1,28.9-.154a1.731,1.731,0,0,1-.649-.679,2.122,2.122,0,0,1-.236-1.028,2.155,2.155,0,0,1,.233-1.024,1.691,1.691,0,0,1,.649-.682,1.872,1.872,0,0,1,.964-.244,1.738,1.738,0,0,1,.934.244,1.651,1.651,0,0,1,.6.641,1.8,1.8,0,0,1,.21.855q0,.083,0,.165t0,.188H28.635a1.462,1.462,0,0,0,.2.709,1.175,1.175,0,0,0,.443.424,1.183,1.183,0,0,0,.566.143,1.127,1.127,0,0,0,.653-.18,1.03,1.03,0,0,0,.382-.488H31.5a1.679,1.679,0,0,1-.574.859A1.673,1.673,0,0,1,29.843.09Zm0-3.368a1.258,1.258,0,0,0-.8.274,1.1,1.1,0,0,0-.4.8h2.34a1.064,1.064,0,0,0-.345-.787A1.157,1.157,0,0,0,29.843-3.278ZM34.125.09a1.822,1.822,0,0,1-.971-.255,1.736,1.736,0,0,1-.645-.7,2.157,2.157,0,0,1-.229-1,2.106,2.106,0,0,1,.233-1,1.751,1.751,0,0,1,.645-.69,1.838,1.838,0,0,1,.975-.251,1.7,1.7,0,0,1,.81.188,1.351,1.351,0,0,1,.548.525V-5.4h.63V0h-.57l-.06-.615a1.742,1.742,0,0,1-.518.487A1.535,1.535,0,0,1,34.125.09Zm.068-.548a1.248,1.248,0,0,0,.664-.176,1.205,1.205,0,0,0,.45-.491,1.592,1.592,0,0,0,.161-.735,1.592,1.592,0,0,0-.161-.735,1.205,1.205,0,0,0-.45-.491,1.248,1.248,0,0,0-.664-.176,1.234,1.234,0,0,0-.656.176,1.205,1.205,0,0,0-.45.491,1.592,1.592,0,0,0-.161.735,1.592,1.592,0,0,0,.161.735,1.205,1.205,0,0,0,.45.491A1.234,1.234,0,0,0,34.193-.458ZM39.54,1.65l.923-2.01h-.218L38.768-3.72h.682l1.23,2.9,1.305-2.9h.653L40.2,1.65ZM44.648.09A1.87,1.87,0,0,1,43.7-.15a1.734,1.734,0,0,1-.664-.679A2.09,2.09,0,0,1,42.8-1.86a2.064,2.064,0,0,1,.247-1.031,1.752,1.752,0,0,1,.671-.679,1.891,1.891,0,0,1,.949-.24,1.87,1.87,0,0,1,.945.24,1.734,1.734,0,0,1,.664.679,2.09,2.09,0,0,1,.244,1.031,2.064,2.064,0,0,1-.248,1.031A1.752,1.752,0,0,1,45.6-.15,1.891,1.891,0,0,1,44.648.09Zm0-.54a1.2,1.2,0,0,0,.6-.158,1.175,1.175,0,0,0,.45-.472,1.607,1.607,0,0,0,.173-.78,1.636,1.636,0,0,0-.169-.78,1.151,1.151,0,0,0-.446-.473,1.181,1.181,0,0,0-.592-.158,1.2,1.2,0,0,0-.6.158,1.175,1.175,0,0,0-.45.473,1.607,1.607,0,0,0-.173.78,1.607,1.607,0,0,0,.173.78,1.183,1.183,0,0,0,.446.472A1.161,1.161,0,0,0,44.648-.45Zm4.1.54a1.4,1.4,0,0,1-1.05-.4,1.711,1.711,0,0,1-.39-1.234V-3.72h.63v2.107q0,1.163.953,1.163A1.045,1.045,0,0,0,49.7-.8a1.421,1.421,0,0,0,.319-.994V-3.72h.63V0h-.57l-.045-.668a1.3,1.3,0,0,1-.514.555A1.478,1.478,0,0,1,48.75.09ZM53.67,0V-3.72h.57l.037.668a1.351,1.351,0,0,1,.517-.555,1.458,1.458,0,0,1,.765-.2,1.409,1.409,0,0,1,1.054.4,1.7,1.7,0,0,1,.394,1.234V0h-.63V-2.107q0-1.163-.96-1.163a1.037,1.037,0,0,0-.8.349,1.421,1.421,0,0,0-.319.994V0Zm5.985.09a1.87,1.87,0,0,1-.945-.24,1.734,1.734,0,0,1-.664-.679A2.09,2.09,0,0,1,57.8-1.86a2.064,2.064,0,0,1,.247-1.031,1.752,1.752,0,0,1,.671-.679,1.891,1.891,0,0,1,.949-.24,1.87,1.87,0,0,1,.945.24,1.734,1.734,0,0,1,.664.679,2.09,2.09,0,0,1,.244,1.031,2.064,2.064,0,0,1-.248,1.031A1.752,1.752,0,0,1,60.6-.15,1.891,1.891,0,0,1,59.655.09Zm0-.54a1.2,1.2,0,0,0,.6-.158,1.175,1.175,0,0,0,.45-.472,1.607,1.607,0,0,0,.173-.78,1.636,1.636,0,0,0-.169-.78,1.151,1.151,0,0,0-.446-.473,1.181,1.181,0,0,0-.592-.158,1.2,1.2,0,0,0-.6.158,1.175,1.175,0,0,0-.45.473,1.607,1.607,0,0,0-.173.78,1.607,1.607,0,0,0,.173.78,1.183,1.183,0,0,0,.446.472A1.161,1.161,0,0,0,59.655-.45ZM63.008,0,61.92-3.72h.63L63.338-.8l.87-2.918h.712L65.8-.8l.78-2.918h.638L66.128,0h-.645l-.915-3.068L63.653,0Z" transform="translate(82.814 702.043)" fill="#fff"/>
  </g>
</svg>
