<svg id="icon-qualityWork" xmlns="http://www.w3.org/2000/svg" xmlns:xlink="http://www.w3.org/1999/xlink" width="35" height="35" viewBox="0 0 35 35">
  <defs>
    <clipPath id="clip-path">
      <rect id="Rectangle_34072" data-name="Rectangle 34072" width="31.704" height="26.565" transform="translate(-1 -2)" fill="none" stroke="#eb4c60" stroke-width="1.5"/>
    </clipPath>
  </defs>
  <g id="Rectangle_34073" data-name="Rectangle 34073" fill="#fff" stroke="#707070" stroke-width="1" opacity="0">
    <rect width="35" height="35" stroke="none"/>
    <rect x="0.5" y="0.5" width="34" height="34" fill="none"/>
  </g>
  <g id="Group_73293" data-name="Group 73293" transform="translate(2.648 6)">
    <g id="Group_73293-2" data-name="Group 73293" clip-path="url(#clip-path)">
      <path id="Path_61725" data-name="Path 61725" d="M129.691,7.077l1.465,2.969a.736.736,0,0,0,.554.4l3.277.476a.736.736,0,0,1,.408,1.255l-2.371,2.311a.736.736,0,0,0-.212.651l.56,3.263a.736.736,0,0,1-1.067.775l-2.931-1.541a.736.736,0,0,0-.685,0l-2.931,1.541a.736.736,0,0,1-1.067-.775l.56-3.263a.736.736,0,0,0-.212-.651l-2.371-2.311a.736.736,0,0,1,.408-1.255l3.277-.476a.736.736,0,0,0,.554-.4l1.465-2.969A.736.736,0,0,1,129.691,7.077Z" transform="translate(-114.179 -6.217)" fill="none" stroke="#eb4c60" stroke-linecap="round" stroke-linejoin="round" stroke-width="1.5"/>
      <path id="Path_61726" data-name="Path 61726" d="M246.077,128.875l1.149-2.329a.736.736,0,0,1,1.319,0l1.465,2.969a.736.736,0,0,0,.554.4l3.276.476a.736.736,0,0,1,.408,1.255l-2.371,2.311a.736.736,0,0,0-.212.651l.56,3.263a.736.736,0,0,1-1.067.775l-2.931-1.541a.735.735,0,0,0-.685,0l-2.931,1.541a.736.736,0,0,1-1.067-.775l.56-3.263a.735.735,0,0,0-.212-.651l-2.371-2.311" transform="translate(-225.218 -117.621)" fill="none" stroke="#eb4c60" stroke-linecap="round" stroke-linejoin="round" stroke-width="1.5"/>
      <path id="Path_61727" data-name="Path 61727" d="M15.062,128.875l-1.149-2.329a.736.736,0,0,0-1.319,0l-1.465,2.969a.736.736,0,0,1-.554.4l-3.277.476a.736.736,0,0,0-.408,1.255l2.371,2.311a.736.736,0,0,1,.212.651l-.56,3.263a.736.736,0,0,0,1.067.775l2.931-1.541a.735.735,0,0,1,.685,0l2.931,1.541a.736.736,0,0,0,1.067-.775l-.56-3.263a.735.735,0,0,1,.212-.651l2.371-2.311" transform="translate(-6.217 -117.621)" fill="none" stroke="#eb4c60" stroke-linecap="round" stroke-linejoin="round" stroke-width="1.5"/>
    </g>
  </g>
</svg>
